<?xml version="1.0" encoding="UTF-8" standalone="no"?>
<svg
   xmlns:dc="http://purl.org/dc/elements/1.1/"
   xmlns:cc="http://creativecommons.org/ns#"
   xmlns:rdf="http://www.w3.org/1999/02/22-rdf-syntax-ns#"
   xmlns:svg="http://www.w3.org/2000/svg"
   xmlns="http://www.w3.org/2000/svg"
   style="fill:#000000"
   id="svg831"
   version="1.1"
   width="16"
   viewBox="0 0 16 20"
   height="20"
   enable-background="new 0 0 24 24">
  <metadata
     id="metadata837">
    <rdf:RDF>
      <cc:Work
         rdf:about="">
        <dc:format>image/svg+xml</dc:format>
        <dc:type
           rdf:resource="http://purl.org/dc/dcmitype/StillImage" />
        <dc:title></dc:title>
      </cc:Work>
    </rdf:RDF>
  </metadata>
  <defs
     id="defs835" />
  <g
     style="display:inline"
     id="layer5">
    <rect
       style="fill:none"
       y="-2"
       x="-4"
       id="rect827"
       width="24"
       height="24" />
    <path
       id="path829"
       d="M 8 0 C 2.67 4.55 0 8.4807812 0 11.800781 C 0 16.780781 3.8 20 8 20 C 12.2 20 16 16.780781 16 11.800781 C 16 8.4807812 13.33 4.55 8 0 z M 7.2324219 6.5488281 L 7.4042969 6.5488281 C 9.0161056 6.5488281 10.540024 7.1904273 11.585938 8.3066406 C 12.716051 9.5127077 12.914076 10.688821 12.921875 10.738281 L 12.980469 11.117188 L 12.658203 11.117188 C 13.273268 12.107632 13.576172 13.150391 13.576172 13.150391 L 13.236328 16.421875 L 7.2324219 16.421875 C 5.9476108 16.421875 4.7405227 15.920821 3.8320312 15.009766 C 2.9235181 14.098732 2.4238281 12.886084 2.4238281 11.597656 L 2.4238281 11.373047 C 2.4238281 10.084619 2.9235398 8.8739238 3.8320312 7.9628906 C 4.7405227 7.0518356 5.9476108 6.5488281 7.2324219 6.5488281 z M 7.2324219 7.2070312 C 4.9419569 7.2070313 3.0800781 9.0761737 3.0800781 11.373047 L 3.0800781 11.597656 C 3.0800781 13.894551 4.9419569 15.763672 7.2324219 15.763672 L 12.644531 15.763672 L 12.880859 13.509766 L 10.009766 13.509766 C 9.2935297 13.509766 8.6216779 13.158742 8.2109375 12.570312 L 6.7382812 10.458984 L 12.166016 10.458984 C 12.027613 10.064834 11.72725 9.4152453 11.109375 8.7558594 C 10.186985 7.7714883 8.8357231 7.2070312 7.4042969 7.2070312 L 7.2324219 7.2070312 z M 7.9980469 11.117188 L 8.7480469 12.191406 C 9.0361359 12.60406 9.5074397 12.851562 10.009766 12.851562 L 10.042969 12.851562 L 9.0058594 11.117188 L 7.9980469 11.117188 z M 9.7695312 11.117188 L 10.806641 12.851562 L 12.783203 12.851562 C 12.621883 12.431 12.322275 11.755623 11.869141 11.117188 L 9.7695312 11.117188 z "
       style="fill:#ffffff;fill-opacity:1;stroke:none;stroke-opacity:1" />
  </g>
  <g
     style="display:inline"
     id="layer3">
    <g
       transform="matrix(0.02178532,0,0,0.02184627,2.4229581,5.8930792)"
       id="g6073"
       style="fill:#4caf50;fill-opacity:1;stroke-width:45.83839417;stroke-miterlimit:4;stroke-dasharray:none" />
  </g>
  <g
     style="display:none"
     id="layer4">
    <g
       style="fill:#ffffff;fill-opacity:1"
       transform="matrix(0.01701167,0,0,0.01701167,3.6450125,6.8912724)"
       id="g2342">
      <path
         style="fill:#ffffff;fill-opacity:1"
         d="m 380.867,315.905 h 127.956 c -5.445,-18.383 -16.927,-52.259 -35.617,-83.367 h -142.35 z"
         id="path2336" />
      <path
         style="fill:#ffffff;fill-opacity:1"
         d="M 258.13,301.651 188.692,202.456 H 478.196 C 471.289,181.468 455.641,146.055 421.808,110.05 373.665,58.815 303.503,29.43 229.313,29.43 h -7.908 C 162.266,29.43 106.665,52.46 64.848,94.278 23.03,136.095 0,191.694 0,250.834 v 10.331 c 0,59.14 23.03,114.74 64.848,156.557 41.817,41.818 97.418,64.848 156.557,64.848 H 497.749 L 512,345.988 H 343.285 c -33.888,0 -65.722,-16.574 -85.155,-44.337 z m 175.584,92.419 h 28.283 v 30.204 h -28.283 z m -65.937,0 h 28.284 v 30.204 h -28.284 z"
         id="path2338" />
      <path
         style="fill:#ffffff;fill-opacity:1"
         d="M 295.774,232.538 H 246.47 l 36.303,51.862 c 13.81,19.727 36.431,31.505 60.512,31.505 h 2.5 z"
         id="path2340" />
    </g>
  </g>
</svg>
